<?xml version="1.0" encoding="utf-8"?>
<!-- Generator: Adobe Illustrator 25.4.1, SVG Export Plug-In . SVG Version: 6.00 Build 0)  -->
<svg version="1.1" id="Layer_1" xmlns="http://www.w3.org/2000/svg" xmlns:xlink="http://www.w3.org/1999/xlink" x="0px" y="0px"
	 viewBox="0 0 1413.4 1412.6" style="enable-background:new 0 0 1413.4 1412.6;" xml:space="preserve">
<style type="text/css">
	.st0{fill:#FFEDD1;}
	.st1{fill:#F9A834;}
</style>
<g>
	<path class="st0" d="M388.5,586.2l-0.3,817.5c0,4.9,4,8.9,8.9,8.9h1007.4c7.2,0,11.4-8.1,7.3-14L783.4,496.3L388.5,586.2z"/>
	<g>
		<path class="st1" d="M419.5,556.7c21.1,92.5,110.3,151.1,199.3,130.9c89-20.3,144.1-111.7,123.1-204.2"/>
		<path d="M843.4,466.1c-32.5-113.5-129.2-192.3-238.3-202.3C585.4,90.4,444.7,0,305.5,0C153.7,0,0,108.8,0,316.6L0,1405
			c0,4.2,3.4,7.6,7.6,7.6h132c4.2,0,7.6-3.4,7.6-7.6V316.6c0-125,85.3-173.3,158.3-173.3c73.8,0,148.3,49.1,154.3,149.5
			c-101.5,53.7-159.9,171.1-139.3,292.3c1.5,8.7,9.9,14.3,18.5,12.4l493-112.2C840.6,483.3,845.8,474.5,843.4,466.1z"/>
	</g>
</g>
</svg>
