<?xml version="1.0" encoding="utf-8"?>
<!-- Generator: Adobe Illustrator 25.4.1, SVG Export Plug-In . SVG Version: 6.00 Build 0)  -->
<svg version="1.1" id="Layer_1" xmlns="http://www.w3.org/2000/svg" xmlns:xlink="http://www.w3.org/1999/xlink" x="0px" y="0px"
	 viewBox="0 0 1155.5 709" style="enable-background:new 0 0 1155.5 709;" xml:space="preserve">
<style type="text/css">
	.st0{fill:#F7A634;}
</style>
<g>
	<path class="st0" d="M626.7,307c-16.3,3.7-32.6-5.9-38.3-21.8l63.4-14.4C653.5,287.5,642.9,303.3,626.7,307z"/>
	<path d="M670.7,261.2c-7.1-22.1-26.7-37.2-48.4-38.5c-4.8-34.9-32.1-52.9-60.1-52.9c-30.5,0-61.4,21.9-61.4,63.6v161.4
		c0,1.8,1.4,3.2,3.2,3.2h23.2c1.8,0,3.2-1.4,3.2-3.2V233.5c0-25.1,17.1-34.8,31.8-34.8c15,0,30.4,10.1,31.3,30.9
		c-18.6,10.7-29.4,32.5-26.3,55.2c0.4,2.7,3,4.5,5.7,3.9l94.4-21.5C669.9,266.6,671.5,263.8,670.7,261.2z"/>
</g>
<g>
	<path d="M943.9,428.4c-11.9,0-22.6,4.9-30.1,12.8c-0.6,0.6-1.6,0.4-1.8-0.4c-1.9-7.1-8.1-12.4-16.2-12.4c-3.4,0-7.1,1.2-11,3.2
		c-1.3,0.7-4.3,2.8-5.1,3.5c-0.6,0.5-1.6,0.8-2.3,0.4c-0.2-0.1-0.3-0.2-0.5-0.3l-2.7-2.6c-0.7-0.7-1.7-1.1-2.7-1.1h-20
		c-2.3,0-4.2,1.9-4.2,4.2v9.2c0,1.7,1.1,3.2,2.7,3.7l1.4,0.4c1.4,0.3,2.3,1.5,2.3,2.9v33.4c0,1.4-0.8,2.7-2,3.3l-2.9,1.6
		c-1,0.5-1.6,1.5-1.6,2.6v12.8c0,1.7,1.3,3,3,3h36.5c1.7,0,3-1.3,3-3v-12.8c0-1.1-0.6-2.1-1.6-2.6l-2.9-1.6c-1.2-0.7-2-1.9-2-3.3
		v-30.1c0-0.3,0.2-0.6,0.5-0.8l0,0c0.3-0.1,0.7,0,0.9,0.3c2.6,4,7.4,6.6,12.7,6.6c1.7,0,3.3-0.2,4.7-0.6c0.7-0.2,1.3,0.4,1.2,1.1
		c-0.5,2.5-0.7,5-0.7,7.6c0,22.7,18.3,41.1,41.4,41.1c15.8,0,30-9.2,37.9-21.6c1.2-1.8,0.5-4.3-1.4-5.3c-1.3-0.7-2.4-1.3-4.1-2.1
		c-1.8-0.9-4-0.5-5.4,1c-3.2,3.3-8.8,7.2-18.7,7.2c-11.8,0-15.5-7.8-16.2-10.4c-0.7-2.7,0.5-4,3-4c1.7,0,40.8,0,42.5,0
		c1.5,0,2.8-0.9,2.9-2.3c0.2-1.6,0.3-2.6,0.4-5.8C985.7,447,967,428.4,943.9,428.4z M958.5,463.7c-1.4,0-19.7,0-21.8,0
		c-1.9,0-2.7-1.5-2.5-3.1c0.2-2.4,4.4-8.7,13.6-8.7c9.5,0,12.7,6.7,13,8.8C961.1,462.6,959.9,463.7,958.5,463.7z"/>
	<g>
		<path d="M170.6,406.7v5.4c0,1.5,1,2.8,2.4,3.3l1.7,0.5c1.4,0.3,2.3,1.5,2.3,2.9v66.4c0,1.4-0.8,2.7-2,3.3l-2.9,1.6
			c-1,0.5-1.6,1.5-1.6,2.6v12.8c0,1.7,1.3,3,3,3H210c1.7,0,3-1.3,3-3v-12.8c0-1.1-0.6-2.1-1.6-2.6l-2.9-1.6c-1.2-0.7-2-1.9-2-3.3
			v-83.8c0-3.4-3.1-5.9-6.4-5.2l-25.4,5.2C172.3,402,170.6,404.2,170.6,406.7z"/>
	</g>
	<path d="M436.8,490.2l-2.9-1.6c-1.2-0.7-2-1.9-2-3.3v-31.8c0-13.6-9.4-25.1-22.5-25.1c-6.1,0-13.4,0.4-25.1,9.5
		c-0.8,0.6-1.8,0.4-2.4-0.3c-4.6-6.1-12-9.2-19-9.2c-8.8,0-16,4.1-21,8.1c-0.8,0.6-1.9,0.1-1.9-0.9v-3.7c0-3.2-2.9-5.5-6-4.9
		c-10.1,2.1-27.2,6.5-27.2,6.5c-1.7,0.8-2.9,2.6-2.9,4.5v5.2c0,1.7,1.1,3.2,2.7,3.7l1.4,0.4c1.4,0.3,2.3,1.5,2.3,2.9l0,35v0.7
		c0,1.2-0.6,4-3.6,4.8c-0.6,0.2-1.2,0.2-1.9,0.2c-0.1,0-0.2,0-0.2,0c-3.8-0.1-5.1-2.9-5.8-4.4c0,0,0,0,0,0c0,0,0-0.1-0.1-0.1
		c-1.9-4.5-4.1-11.1-6.5-17.7c-2.5-6.8-5.3-13.7-8.2-18.2c-7.2-11.2-19.9-18.7-37.2-18.7h-19c-4.2,0-7.6,3.4-7.6,7.6v3.2
		c0,4.2,3.4,7.6,7.6,7.6h12.2c1.8,0,3.2,2.5,0,3.2c-14.5,3.4-23.7,11.3-23.7,27.2c0,19.5,16,29.8,31.2,29.8c13.2,0,18-5.2,22.5-8.7
		c1.5-1.2,3.8-0.4,4.2,1.6l0.4,2.3c0.3,1.7,1.9,3,3.7,3H307h0.3h36.2c1.7,0,3-1.3,3-3v-12.8c0-1.1-0.6-2.1-1.6-2.6l-2.9-1.6
		c-1.2-0.7-2-1.9-2-3.3v-22.7c0.1-8.2,4.5-10.2,8.1-10.2c3.6,0,8.2,2.3,8.2,10.2v22.9c0,1.3-0.6,2.4-1.7,3.1l-1.7,1.1
		c-1.3,0.8-2.1,2.3-2.1,3.8v12.1c0,1.7,1.3,3,3,3h34.8c1.7,0,3-1.3,3-3v-12.1c0-1.6-0.8-3-2.1-3.8l-1.7-1.1
		c-1.1-0.7-1.7-1.8-1.7-3.1v-24.9c0.1-4.8,3.9-8.2,8.4-8.2c4,0,7.9,3.3,7.9,10.1v22.8c0,1.4-0.8,2.7-2,3.3l-2.9,1.6
		c-1,0.5-1.6,1.5-1.6,2.6v12.8c0,1.7,1.3,3,3,3h36.5c1.7,0,3-1.3,3-3v-12.8C438.4,491.7,437.8,490.7,436.8,490.2z M255.2,488.4
		c-5.2,0-9.4-4.4-9.4-9.9c0-5.5,4.2-9.9,9.4-9.9c5.2,0,9.4,4.4,9.4,9.9C264.6,483.9,260.4,488.4,255.2,488.4z"/>
	<g>
		<ellipse cx="821.8" cy="407.7" rx="15.7" ry="14.6"/>
		<path d="M841.6,490.2l-2.9-1.6c-1.2-0.7-2-1.9-2-3.3v-53.1c0-3.2-3-5.6-6.1-4.8c-9.7,2.2-27.1,6.2-27.1,6.2
			c-1.7,0.8-2.9,2.6-2.9,4.5v5.2c0,1.7,1.1,3.2,2.7,3.7l1.4,0.4c0,0,0.1,0,0.1,0c1.3,0.3,2.3,1.5,2.3,2.9v35.6
			c0,1.4-0.9,5.1-5.6,5.1c-4.1,0-5.5-3.1-6.1-4.6c-3.8-9.2-9-27-14.7-35.9c-7.2-11.2-19.9-18.7-37.2-18.7h-19
			c-4.2,0-7.6,3.4-7.6,7.6v3.2c0,4.2,3.4,7.6,7.6,7.6h12.2c1.8,0,3.2,2.5,0,3.2c-14.5,3.4-23.7,11.3-23.7,27.2
			c0,19.5,16,29.8,31.2,29.8c13.2,0,18-5.2,22.5-8.7c1.5-1.2,3.8-0.3,4.2,1.6l0.4,2.3c0.3,1.7,1.9,3,3.6,3h65.2c1.7,0,3-1.3,3-3
			v-12.8C843.2,491.7,842.6,490.7,841.6,490.2z M751.8,488.4c-5.2,0-9.4-4.4-9.4-9.9c0-5.5,4.2-9.9,9.4-9.9s9.4,4.4,9.4,9.9
			C761.3,483.9,757,488.4,751.8,488.4z"/>
	</g>
	<path d="M496.1,428.3c-9.8,0-15.7,3.2-20.5,7.1c-0.7,0.6-1.8,0.1-1.8-0.9l0-2.5c0-3.2-3-5.5-6.1-4.8l-25.8,6.1
		c-1.7,0.8-2.9,2.6-2.9,4.5v5.2c0,1.7,1.1,3.2,2.7,3.7l1.4,0.4c1.4,0.3,2.3,1.5,2.3,2.9v68.1c0,1.4-0.8,2.7-2,3.3l-2.9,1.6
		c-1,0.5-1.6,1.5-1.6,2.6V538c0,1.7,1.3,3,3,3h36.5c1.7,0,3-1.3,3-3v-12.2c0-1.1-0.6-2.1-1.6-2.6l-2.9-1.6c-1.2-0.7-2-1.9-2-3.3
		l-0.2-12.2c0-1.1,1.2-1.6,2-1c3.4,2.8,9,5.3,17.8,5.3c18.4,0,36.6-15.7,36.6-41.1C531.3,444.5,515.1,428.3,496.1,428.3z
		 M487.1,485.9c-9.5,0-14.6-7.8-14.6-17.2c0-9.3,5.7-16.6,14.6-16.6c9,0,14.6,7.3,14.6,16.6C501.7,478,496.7,485.9,487.1,485.9z"/>
	<path d="M709.2,489.9l-2.4-1.3c-1.2-0.7-2-1.9-2-3.3l-0.1-84.1c0-3.1-2.9-5.4-6-4.8c-9.3,2-19,4-25.7,5.6c-1.8,0.4-3.1,2-3.1,3.9
		v5.9c0,1.7,1.1,3.2,2.7,3.7l1.4,0.4c1.4,0.3,2.3,1.5,2.3,2.9l0,14.5c0,1-1.2,1.5-1.9,0.9c-3.6-3-10.7-5.8-19.7-5.8
		c-18.4,0-35.8,16.7-35.8,41.1c0,6.6,1,12.6,2.9,17.7c0.5,1.3-0.8,2.6-2.1,2.1l-0.1,0c-1.5-0.5-2.7-1.6-3.3-3.1
		c-3.8-9.3-9-26.9-14.6-35.7c-7.2-11.2-19.9-18.7-37.2-18.7h-19c-4.2,0-7.6,3.4-7.6,7.6v3.2c0,4.2,3.4,7.6,7.6,7.6h12.2
		c1.8,0,3.2,2.5,0,3.2c-14.5,3.4-23.7,11.3-23.7,27.2c0,19.5,16,29.8,31.2,29.8c13.2,0,18-5.2,22.5-8.7c1.5-1.2,3.8-0.3,4.2,1.6
		l0.4,2.3c0.3,1.7,1.9,3,3.6,3h26.6c1.7,0,3.1-1.4,3.1-3.1l0-2.1c0-2.7,3.2-4.1,5.2-2.2c6.3,6,14.7,9.2,24.1,9.2
		c10.5,0,16.8-3.9,21.8-8.4c1.8-1.6,4.7-0.7,5.2,1.6l0.6,2.2c0.4,1.6,1.8,2.7,3.4,2.7h22.1c1.7,0,3-1.3,3-3v-12.4
		C711.2,491.8,710.4,490.5,709.2,489.9z M572.9,488.4c-5.2,0-9.4-4.4-9.4-9.9c0-5.5,4.2-9.9,9.4-9.9s9.4,4.4,9.4,9.9
		C582.3,483.9,578.1,488.4,572.9,488.4z M662.7,485.8c-9,0-14.6-7.3-14.6-16.6c0-9.3,5.1-17.2,14.6-17.2c9.5,0,14.6,7.8,14.6,17.2
		C677.3,478.5,671.6,485.8,662.7,485.8z"/>
</g>
</svg>
