<?xml version="1.0" encoding="utf-8"?>
<!-- Generator: Adobe Illustrator 25.4.1, SVG Export Plug-In . SVG Version: 6.00 Build 0)  -->
<svg version="1.1" id="Layer_1" xmlns="http://www.w3.org/2000/svg" xmlns:xlink="http://www.w3.org/1999/xlink" x="0px" y="0px"
	 viewBox="0 0 814.4 147.8" style="enable-background:new 0 0 814.4 147.8;" xml:space="preserve">
<g>
	<path d="M773.5,35.3c-11.9,0-22.6,4.9-30.1,12.8c-0.6,0.6-1.6,0.4-1.8-0.4c-1.9-7.1-8.1-12.4-16.2-12.4c-3.4,0-7.1,1.2-11,3.2
		c-1.3,0.7-4.3,2.8-5.1,3.5c-0.6,0.5-1.6,0.8-2.3,0.4c-0.2-0.1-0.3-0.2-0.5-0.3l-2.7-2.6c-0.7-0.7-1.7-1.1-2.7-1.1h-20
		c-2.3,0-4.2,1.9-4.2,4.2v9.2c0,1.7,1.1,3.2,2.7,3.7l1.4,0.4c1.4,0.3,2.3,1.5,2.3,2.9v33.4c0,1.4-0.8,2.7-2,3.3l-2.9,1.6
		c-1,0.5-1.6,1.5-1.6,2.6v12.8c0,1.7,1.3,3,3,3h36.5c1.7,0,3-1.3,3-3V99.7c0-1.1-0.6-2.1-1.6-2.6l-2.9-1.6c-1.2-0.7-2-1.9-2-3.3
		V62.1c0-0.3,0.2-0.6,0.5-0.8l0,0c0.3-0.1,0.7,0,0.9,0.3c2.6,4,7.4,6.6,12.7,6.6c1.7,0,3.3-0.2,4.7-0.6c0.7-0.2,1.3,0.4,1.2,1.1
		c-0.5,2.5-0.7,5-0.7,7.6c0,22.7,18.3,41.1,41.4,41.1c15.8,0,30-9.2,37.9-21.6c1.2-1.8,0.5-4.3-1.4-5.3c-1.3-0.7-2.4-1.3-4.1-2.1
		c-1.8-0.9-4-0.5-5.4,1c-3.2,3.3-8.8,7.2-18.7,7.2c-11.8,0-15.5-7.8-16.2-10.4c-0.7-2.7,0.5-4,3-4c1.7,0,40.8,0,42.5,0
		c1.5,0,2.8-0.9,2.9-2.3c0.2-1.6,0.3-2.6,0.4-5.8c0-0.4,0-0.7,0-1.1C814.5,53.2,796.1,35.3,773.5,35.3z M788,70.7
		c-1.4,0-19.7,0-21.8,0c-1.9,0-2.7-1.5-2.5-3.1c0.2-2.4,4.4-8.7,13.6-8.7c9.5,0,12.7,6.7,13,8.8C790.6,69.5,789.5,70.7,788,70.7z"/>
	<g>
		<path d="M0.1,13.7v5.4c0,1.5,1,2.8,2.4,3.3l1.7,0.5c1.4,0.3,2.3,1.5,2.3,2.9v66.4c0,1.4-0.8,2.7-2,3.3l-2.9,1.6
			c-1,0.5-1.6,1.5-1.6,2.6v12.8c0,1.7,1.3,3,3,3h36.5c1.7,0,3-1.3,3-3V99.7c0-1.1-0.6-2.1-1.6-2.6L38,95.5c-1.2-0.7-2-1.9-2-3.3V8.4
			c0-3.4-3.1-5.9-6.4-5.2L4.2,8.4C1.9,9,0.1,11.1,0.1,13.7z"/>
	</g>
	<path d="M266.4,97.1l-2.9-1.6c-1.2-0.7-2-1.9-2-3.3V60.4c0-13.6-9.4-25.1-22.5-25.1c-6.1,0-13.4,0.4-25.1,9.5
		c-0.8,0.6-1.8,0.4-2.4-0.3c-4.6-6.1-12-9.2-19-9.2c-8.8,0-16,4.1-21,8.1c-0.8,0.6-1.9,0.1-1.9-0.9v-3.7c0-3.2-2.9-5.5-6-4.9
		c-10.1,2.1-27.2,6.5-27.2,6.5c-1.7,0.8-2.9,2.6-2.9,4.5v5.2c0,1.7,1.1,3.2,2.7,3.7l1.4,0.4c1.4,0.3,2.3,1.5,2.3,2.9v35v0.7
		c0,1.2-0.6,4-3.6,4.8c-0.6,0.2-1.2,0.2-1.9,0.2c-0.1,0-0.2,0-0.2,0c-3.8-0.1-5.1-2.9-5.8-4.4l0,0c0,0,0-0.1-0.1-0.1
		c-1.9-4.5-4.1-11.1-6.5-17.7c-2.5-6.8-5.3-13.7-8.2-18.2c-7.2-11.2-19.9-18.7-37.2-18.7h-19c-4.2,0-7.6,3.4-7.6,7.6v3.2
		c0,4.2,3.4,7.6,7.6,7.6h12.2c1.8,0,3.2,2.5,0,3.2c-14.5,3.4-23.7,11.3-23.7,27.2c0,19.5,16,29.8,31.2,29.8c13.2,0,18-5.2,22.5-8.7
		c1.5-1.2,3.8-0.4,4.2,1.6l0.4,2.3c0.3,1.7,1.9,3,3.7,3h28.6h0.3H173c1.7,0,3-1.3,3-3V99.7c0-1.1-0.6-2.1-1.6-2.6l-2.9-1.6
		c-1.2-0.7-2-1.9-2-3.3V69.5c0.1-8.2,4.5-10.2,8.1-10.2s8.2,2.3,8.2,10.2v22.9c0,1.3-0.6,2.4-1.7,3.1l-1.7,1.1
		c-1.3,0.8-2.1,2.3-2.1,3.8v12.1c0,1.7,1.3,3,3,3h34.8c1.7,0,3-1.3,3-3v-12.1c0-1.6-0.8-3-2.1-3.8l-1.7-1.1
		c-1.1-0.7-1.7-1.8-1.7-3.1V67.5c0.1-4.8,3.9-8.2,8.4-8.2c4,0,7.9,3.3,7.9,10.1v22.8c0,1.4-0.8,2.7-2,3.3l-2.9,1.6
		c-1,0.5-1.6,1.5-1.6,2.6v12.8c0,1.7,1.3,3,3,3h36.5c1.7,0,3-1.3,3-3V99.7C268,98.6,267.4,97.6,266.4,97.1z M84.8,95.3
		c-5.2,0-9.4-4.4-9.4-9.9s4.2-9.9,9.4-9.9s9.4,4.4,9.4,9.9S90,95.3,84.8,95.3z"/>
	<g>
		<ellipse cx="651.4" cy="14.6" rx="15.7" ry="14.6"/>
		<path d="M671.2,97.1l-2.9-1.6c-1.2-0.7-2-1.9-2-3.3V39.1c0-3.2-3-5.6-6.1-4.8c-9.7,2.2-27.1,6.2-27.1,6.2
			c-1.7,0.8-2.9,2.6-2.9,4.5v5.2c0,1.7,1.1,3.2,2.7,3.7l1.4,0.4h0.1c1.3,0.3,2.3,1.5,2.3,2.9v35.6c0,1.4-0.9,5.1-5.6,5.1
			c-4.1,0-5.5-3.1-6.1-4.6c-3.8-9.2-9-27-14.7-35.9c-7.2-11.2-19.9-18.7-37.2-18.7h-19c-4.2,0-7.6,3.4-7.6,7.6v3.2
			c0,4.2,3.4,7.6,7.6,7.6h12.2c1.8,0,3.2,2.5,0,3.2c-14.5,3.4-23.7,11.3-23.7,27.2c0,19.5,16,29.8,31.2,29.8c13.2,0,18-5.2,22.5-8.7
			c1.5-1.2,3.8-0.3,4.2,1.6l0.4,2.3c0.3,1.7,1.9,3,3.6,3h65.2c1.7,0,3-1.3,3-3V99.7C672.7,98.6,672.1,97.6,671.2,97.1z M581.4,95.3
			c-5.2,0-9.4-4.4-9.4-9.9s4.2-9.9,9.4-9.9s9.4,4.4,9.4,9.9S586.6,95.3,581.4,95.3z"/>
	</g>
	<path d="M325.7,35.3c-9.8,0-15.7,3.2-20.5,7.1c-0.7,0.6-1.8,0.1-1.8-0.9V39c0-3.2-3-5.5-6.1-4.8l-25.8,6.1
		c-1.7,0.8-2.9,2.6-2.9,4.5V50c0,1.7,1.1,3.2,2.7,3.7l1.4,0.4c1.4,0.3,2.3,1.5,2.3,2.9v68.1c0,1.4-0.8,2.7-2,3.3l-2.9,1.6
		c-1,0.5-1.6,1.5-1.6,2.6v12.2c0,1.7,1.3,3,3,3H308c1.7,0,3-1.3,3-3v-12.2c0-1.1-0.6-2.1-1.6-2.6l-2.9-1.6c-1.2-0.7-2-1.9-2-3.3
		l-0.2-12.2c0-1.1,1.2-1.6,2-1c3.4,2.8,9,5.3,17.8,5.3c18.4,0,36.6-15.7,36.6-41.1C360.9,51.4,344.7,35.3,325.7,35.3z M316.7,92.8
		c-9.5,0-14.6-7.8-14.6-17.2c0-9.3,5.7-16.6,14.6-16.6c9,0,14.6,7.3,14.6,16.6C331.3,85,326.2,92.8,316.7,92.8z"/>
	<path d="M539.2,97l-2.9-1.6c-1.2-0.7-2-1.9-2-3.3L534.2,8c0-3.1-2.9-5.4-6-4.8c-9.3,2-19,4-25.7,5.6c-1.8,0.4-3.1,2-3.1,3.9v5.9
		c0,1.7,1.1,3.2,2.7,3.7l1.4,0.4c1.4,0.3,2.3,1.5,2.3,2.9v14.5c0,1-1.2,1.5-1.9,0.9c-3.6-3-10.7-5.8-19.7-5.8
		c-18.4,0-35.8,16.7-35.8,41.1c0,6.6,1,12.6,2.9,17.7c0.5,1.3-0.8,2.6-2.1,2.1h-0.1c-1.5-0.5-2.7-1.6-3.3-3.1
		c-3.8-9.3-9-26.9-14.6-35.7C424,46.1,411.3,38.6,394,38.6h-19c-4.2,0-7.6,3.4-7.6,7.6v3.2c0,4.2,3.4,7.6,7.6,7.6h12.2
		c1.8,0,3.2,2.5,0,3.2c-14.5,3.4-23.7,11.3-23.7,27.2c0,19.5,16,29.8,31.2,29.8c13.2,0,18-5.2,22.5-8.7c1.5-1.2,3.8-0.3,4.2,1.6
		l0.4,2.3c0.3,1.7,1.9,3,3.6,3H452c1.7,0,3.1-1.4,3.1-3.1v-2.1c0-2.7,3.2-4.1,5.2-2.2c6.3,6,14.7,9.2,24.1,9.2
		c10.5,0,16.8-3.9,21.8-8.4c1.8-1.6,4.7-0.7,5.2,1.6l0.6,2.2c0.4,1.6,1.8,2.7,3.4,2.7h22.4c1.7,0,3-1.3,3-3V99.4
		C540.8,98.6,540.2,97.6,539.2,97z M402.5,95.3c-5.2,0-9.4-4.4-9.4-9.9s4.2-9.9,9.4-9.9s9.4,4.4,9.4,9.9S407.7,95.3,402.5,95.3z
		 M492.3,92.7c-9,0-14.6-7.3-14.6-16.6s5.1-17.2,14.6-17.2s14.6,7.8,14.6,17.2C506.9,85.4,501.2,92.7,492.3,92.7z"/>
</g>
</svg>
